<svg xmlns="http://www.w3.org/2000/svg" viewBox="0 0 843.28 369.6"><title>now-united-52</title><polygon points="8.66 13.13 51.61 13.13 107.47 97.23 107.47 13.13 150.94 13.13 150.94 165.41 107.47 165.41 51.92 81.81 51.92 165.41 8.66 165.41 8.66 13.13"/><polygon points="375.59 13.13 419.25 13.13 434.95 98.1 457.98 13.13 501.3 13.13 524.51 98.25 540.31 13.13 583.79 13.13 550.95 165.41 505.83 165.41 479.67 69.52 453.73 165.41 408.64 165.41 375.59 13.13"/><path d="M175.49,518.38H222v94.83a83.18,83.18,0,0,1-4.19,26.63,57.78,57.78,0,0,1-13,21.94c-5.93,6.27-12.14,10.64-18.62,13.22q-13.54,5.26-32.55,5.28a198.89,198.89,0,0,1-24-1.62q-13-1.62-21.73-6.45a54.85,54.85,0,0,1-16-13.72A51.34,51.34,0,0,1,82,640.15C79.14,630,77.68,621,77.68,613.21V518.38h46.49v97.1c0,8.69,2.29,15.45,6.79,20.33s10.9,7.32,18.93,7.32,14.25-2.39,18.81-7.2,6.79-11.61,6.79-20.45Zm71.26,0h43.44l56.45,87.91V518.38h44V677.61h-44L290.5,590.16v87.45H246.75Zm170.3,0h46.71V677.61H417.05Zm63.09,0H621.71v39.35H574.17V677.61H527.68V557.73H480.14Zm156.06,0H760.71v34H682.88v25.35H755v32.49H682.88v31.35H763v36H636.2Zm146.17,0h69.17c13.59,0,24.64,2,33,5.83a54.85,54.85,0,0,1,20.82,16.85,71.65,71.65,0,0,1,11.86,25.54A122.9,122.9,0,0,1,921,597.45c0,17-1.8,30.19-5.49,39.57a65.3,65.3,0,0,1-15.24,23.58c-6.55,6.33-13.5,10.55-21,12.69a102.73,102.73,0,0,1-27.71,4.32H782.37Zm46.48,36v87h11.43q14.61,0,20.82-3.41T870.78,626q3.5-8.56,3.51-27.68,0-25.27-7.82-34.6t-26-9.34Z" transform="translate(-77.68 -310.67)"/><path d="M434.51,400a90.37,90.37,0,0,1-.89,12.72,89.27,89.27,0,0,1-76.69,75.8,90.44,90.44,0,0,1-11.71.76,89.17,89.17,0,0,1-73-37.89A88.94,88.94,0,0,1,257,414a90.75,90.75,0,0,1-1-10.25c0-1.26-.08-2.53-.08-3.81,0-1.64,0-3.27.14-4.88a85.7,85.7,0,0,1,1.09-10,89.27,89.27,0,0,1,2.63-11.22,86.42,86.42,0,0,1,4.52-11.73,89.33,89.33,0,0,1,80.9-51.5,91.26,91.26,0,0,1,11.41.72,89.26,89.26,0,0,1,76.76,74.36A89.84,89.84,0,0,1,434.51,400Z" transform="translate(-77.68 -310.67)" fill="#008dbb"/><path d="M434.51,400a90.37,90.37,0,0,1-.89,12.72,89.27,89.27,0,0,1-76.69,75.8,90.44,90.44,0,0,1-11.71.76,89.17,89.17,0,0,1-73-37.89A88.94,88.94,0,0,1,257,414a90.75,90.75,0,0,1-1-10.25c0-1.26-.08-2.53-.08-3.81,0-1.64,0-3.27.14-4.88a85.7,85.7,0,0,1,1.09-10,89.27,89.27,0,0,1,2.63-11.22,86.42,86.42,0,0,1,4.52-11.73,88.75,88.75,0,0,1,8.34-14.24l84-36.54a89.26,89.26,0,0,1,76.76,74.36A89.84,89.84,0,0,1,434.51,400Z" transform="translate(-77.68 -310.67)" fill="#0066a6"/><path d="M434.51,400a90.37,90.37,0,0,1-.89,12.72,89.27,89.27,0,0,1-76.69,75.8,90.44,90.44,0,0,1-11.71.76,89.17,89.17,0,0,1-73-37.89A88.94,88.94,0,0,1,257,414a90.75,90.75,0,0,1-1-10.25c0-1.26-.08-2.53-.08-3.81,0-1.64,0-3.27.14-4.88a85.7,85.7,0,0,1,1.09-10,89.27,89.27,0,0,1,2.63-11.22,86.42,86.42,0,0,1,4.52-11.73l122-41.52a89.67,89.67,0,0,1,39,39.74,88.4,88.4,0,0,1,8.1,25.36A89.84,89.84,0,0,1,434.51,400Z" transform="translate(-77.68 -310.67)" fill="#7d5399"/><path d="M434.51,400a90.37,90.37,0,0,1-.89,12.72,89.27,89.27,0,0,1-76.69,75.8,90.44,90.44,0,0,1-11.71.76,89.17,89.17,0,0,1-73-37.89A88.94,88.94,0,0,1,257,414a90.75,90.75,0,0,1-1-10.25c0-1.26-.08-2.53-.08-3.81,0-1.64,0-3.27.14-4.88a85.7,85.7,0,0,1,1.09-10,89.27,89.27,0,0,1,2.63-11.22l149.53-36.09a89.46,89.46,0,0,1,16,22.58,88.4,88.4,0,0,1,8.1,25.36A89.84,89.84,0,0,1,434.51,400Z" transform="translate(-77.68 -310.67)" fill="#e24753"/><path d="M434.51,400a90.37,90.37,0,0,1-.89,12.72,89.27,89.27,0,0,1-76.69,75.8,90.44,90.44,0,0,1-11.71.76,89.17,89.17,0,0,1-73-37.89A88.94,88.94,0,0,1,257,414a90.75,90.75,0,0,1-1-10.25c0-1.26-.08-2.53-.08-3.81,0-1.64,0-3.27.14-4.88a85.7,85.7,0,0,1,1.09-10l168.12-24.73a88.4,88.4,0,0,1,8.1,25.36A89.84,89.84,0,0,1,434.51,400Z" transform="translate(-77.68 -310.67)" fill="#b62c47"/><path d="M434.51,400a90.37,90.37,0,0,1-.89,12.72,89.27,89.27,0,0,1-76.69,75.8,90.44,90.44,0,0,1-11.71.76,89.17,89.17,0,0,1-73-37.89A88.94,88.94,0,0,1,257,414a90.75,90.75,0,0,1-1-10.25c0-1.26-.08-2.53-.08-3.81,0-1.64,0-3.27.14-4.88l177.31-9.33A89.84,89.84,0,0,1,434.51,400Z" transform="translate(-77.68 -310.67)" fill="#e76749"/><path d="M386.48,479.16a88.52,88.52,0,0,1-29.55,9.32,90.44,90.44,0,0,1-11.71.76,89.17,89.17,0,0,1-73-37.89A88.94,88.94,0,0,1,257,414a90.75,90.75,0,0,1-1-10.25l177.6,8.91a89.51,89.51,0,0,1-47.14,66.48Z" transform="translate(-77.68 -310.67)" fill="#eae156"/><path d="M386.48,479.16a88.52,88.52,0,0,1-29.55,9.32,90.44,90.44,0,0,1-11.71.76,89.17,89.17,0,0,1-73-37.89A88.94,88.94,0,0,1,257,414l168.29,25.42a89.75,89.75,0,0,1-38.85,39.72Z" transform="translate(-77.68 -310.67)" fill="#34337a"/><path d="M386.48,479.16a88.52,88.52,0,0,1-29.55,9.32,90.44,90.44,0,0,1-11.71.76,89.17,89.17,0,0,1-73-37.89,88.63,88.63,0,0,1-12.81-26.71l150,37.44A89.33,89.33,0,0,1,386.48,479.16Z" transform="translate(-77.68 -310.67)" fill="#0063a0"/><path d="M386.48,479.16a88.52,88.52,0,0,1-29.55,9.32,90.44,90.44,0,0,1-11.71.76,89.17,89.17,0,0,1-73-37.89,88.15,88.15,0,0,1-8.66-15.27Z" transform="translate(-77.68 -310.67)" fill="#38ac8b"/><path d="M345.22,489.24a89.17,89.17,0,0,1-73-37.89l84.72,37.13A90.44,90.44,0,0,1,345.22,489.24Z" transform="translate(-77.68 -310.67)" fill="#b5cd56"/></svg>